<mxfile host="65bd71144e">
    <diagram id="xWocjNIJPiS6VDW-TCpK" name="Page-1">
        <mxGraphModel dx="2514" dy="1671" grid="1" gridSize="10" guides="1" tooltips="1" connect="1" arrows="1" fold="1" page="1" pageScale="1" pageWidth="1100" pageHeight="850" math="0" shadow="0">
            <root>
                <mxCell id="0"/>
                <mxCell id="1" parent="0"/>
                <mxCell id="3" value="" style="edgeStyle=orthogonalEdgeStyle;orthogonalLoop=1;jettySize=auto;html=1;strokeWidth=4;startArrow=none;startFill=0;endArrow=none;endFill=0;curved=1;strokeColor=#6c8ebf;gradientColor=#7ea6e0;fillColor=#dae8fc;fontColor=#0A1200;fontSize=16;fontStyle=1" edge="1" parent="1" source="4" target="9">
                    <mxGeometry relative="1" as="geometry"/>
                </mxCell>
                <mxCell id="101" style="edgeStyle=none;html=1;exitX=0.75;exitY=1;exitDx=0;exitDy=0;fontSize=16;gradientColor=#7ea6e0;fillColor=#dae8fc;strokeColor=#6c8ebf;entryX=0;entryY=0.5;entryDx=0;entryDy=0;curved=1;endArrow=none;endFill=0;" edge="1" parent="1" source="4" target="102">
                    <mxGeometry relative="1" as="geometry">
                        <Array as="points">
                            <mxPoint x="150" y="160"/>
                        </Array>
                    </mxGeometry>
                </mxCell>
                <mxCell id="122" style="edgeStyle=none;curved=1;html=1;exitX=0.25;exitY=1;exitDx=0;exitDy=0;entryX=1;entryY=0.5;entryDx=0;entryDy=0;fontSize=16;startArrow=none;startFill=0;endArrow=classic;endFill=1;strokeWidth=3;gradientColor=#7ea6e0;fillColor=#dae8fc;strokeColor=#6c8ebf;" edge="1" parent="1" source="4" target="121">
                    <mxGeometry relative="1" as="geometry">
                        <Array as="points">
                            <mxPoint x="30" y="260"/>
                        </Array>
                    </mxGeometry>
                </mxCell>
                <mxCell id="144" style="edgeStyle=none;curved=1;html=1;exitX=0.5;exitY=0;exitDx=0;exitDy=0;entryX=0.5;entryY=1;entryDx=0;entryDy=0;fontSize=16;startArrow=none;startFill=0;endArrow=classic;endFill=1;strokeWidth=3;gradientColor=#7ea6e0;fillColor=#dae8fc;strokeColor=#6c8ebf;" edge="1" parent="1" source="4" target="143">
                    <mxGeometry relative="1" as="geometry">
                        <Array as="points">
                            <mxPoint x="60" y="-30"/>
                            <mxPoint x="-40" y="-50"/>
                            <mxPoint x="-246" y="-40"/>
                        </Array>
                    </mxGeometry>
                </mxCell>
                <mxCell id="158" style="edgeStyle=none;curved=1;html=1;exitX=0;exitY=1;exitDx=0;exitDy=0;entryX=1;entryY=0.5;entryDx=0;entryDy=0;fontSize=16;startArrow=none;startFill=0;endArrow=none;endFill=0;strokeWidth=1;gradientColor=#7ea6e0;fillColor=#dae8fc;strokeColor=#6c8ebf;" edge="1" parent="1" source="4" target="155">
                    <mxGeometry relative="1" as="geometry">
                        <Array as="points">
                            <mxPoint x="30" y="170"/>
                            <mxPoint x="-70" y="210"/>
                        </Array>
                    </mxGeometry>
                </mxCell>
                <mxCell id="4" value="User Account" style="rounded=0;whiteSpace=wrap;html=1;strokeColor=#6c8ebf;gradientColor=#7ea6e0;fillColor=#dae8fc;fontColor=#0A1200;fontSize=16;fontStyle=1" vertex="1" parent="1">
                    <mxGeometry x="50" y="60" width="120" height="60" as="geometry"/>
                </mxCell>
                <mxCell id="5" value="" style="edgeStyle=orthogonalEdgeStyle;orthogonalLoop=1;jettySize=auto;html=1;strokeWidth=4;endArrow=none;endFill=0;curved=1;strokeColor=#6c8ebf;gradientColor=#7ea6e0;fillColor=#dae8fc;fontColor=#0A1200;fontSize=16;fontStyle=1" edge="1" parent="1" source="6" target="4">
                    <mxGeometry relative="1" as="geometry"/>
                </mxCell>
                <mxCell id="6" value="&lt;u style=&quot;font-size: 16px;&quot;&gt;email&lt;/u&gt;" style="ellipse;whiteSpace=wrap;html=1;strokeColor=#6c8ebf;gradientColor=#7ea6e0;fillColor=#dae8fc;fontColor=#0A1200;fontSize=16;fontStyle=1" vertex="1" parent="1">
                    <mxGeometry x="-90" y="10" width="90" height="40" as="geometry"/>
                </mxCell>
                <mxCell id="7" value="" style="edgeStyle=orthogonalEdgeStyle;orthogonalLoop=1;jettySize=auto;html=1;strokeWidth=3;endArrow=none;endFill=0;curved=1;strokeColor=#6c8ebf;gradientColor=#7ea6e0;fillColor=#dae8fc;fontColor=#0A1200;fontSize=16;fontStyle=1" edge="1" parent="1" source="8" target="4">
                    <mxGeometry relative="1" as="geometry"/>
                </mxCell>
                <mxCell id="8" value="&lt;u style=&quot;font-size: 16px;&quot;&gt;&lt;span style=&quot;font-size: 16px;&quot;&gt;id&lt;/span&gt;&lt;/u&gt;" style="ellipse;whiteSpace=wrap;html=1;strokeColor=#6c8ebf;gradientColor=#7ea6e0;fillColor=#dae8fc;fontColor=#0A1200;fontSize=16;fontStyle=1" vertex="1" parent="1">
                    <mxGeometry x="-130" y="70" width="90" height="40" as="geometry"/>
                </mxCell>
                <mxCell id="9" value="password" style="ellipse;whiteSpace=wrap;html=1;strokeColor=#6c8ebf;gradientColor=#7ea6e0;fillColor=#dae8fc;fontColor=#0A1200;fontSize=16;fontStyle=1" vertex="1" parent="1">
                    <mxGeometry x="-90" y="120" width="90" height="40" as="geometry"/>
                </mxCell>
                <mxCell id="10" value="" style="edgeStyle=orthogonalEdgeStyle;curved=1;orthogonalLoop=1;jettySize=auto;html=1;startArrow=none;startFill=0;endArrow=none;endFill=0;strokeWidth=3;strokeColor=#6c8ebf;gradientColor=#7ea6e0;fillColor=#dae8fc;fontColor=#0A1200;fontSize=16;fontStyle=1" edge="1" parent="1" source="11" target="39">
                    <mxGeometry relative="1" as="geometry"/>
                </mxCell>
                <mxCell id="11" value="Worker" style="whiteSpace=wrap;html=1;strokeColor=#6c8ebf;gradientColor=#7ea6e0;fillColor=#dae8fc;fontColor=#0A1200;fontSize=16;fontStyle=1" vertex="1" parent="1">
                    <mxGeometry x="620" y="-50" width="120" height="60" as="geometry"/>
                </mxCell>
                <mxCell id="12" value="" style="edgeStyle=orthogonalEdgeStyle;orthogonalLoop=1;jettySize=auto;html=1;startArrow=none;startFill=0;endArrow=none;endFill=0;strokeWidth=3;curved=1;strokeColor=#6c8ebf;gradientColor=#7ea6e0;fillColor=#dae8fc;fontColor=#0A1200;fontSize=16;fontStyle=1" edge="1" parent="1" source="13" target="11">
                    <mxGeometry relative="1" as="geometry"/>
                </mxCell>
                <mxCell id="13" value="skills" style="ellipse;whiteSpace=wrap;html=1;strokeColor=#6c8ebf;gradientColor=#7ea6e0;fillColor=#dae8fc;fontColor=#0A1200;fontSize=16;fontStyle=1" vertex="1" parent="1">
                    <mxGeometry x="820" y="-90" width="90" height="40" as="geometry"/>
                </mxCell>
                <mxCell id="14" value="" style="edgeStyle=orthogonalEdgeStyle;orthogonalLoop=1;jettySize=auto;html=1;startArrow=none;startFill=0;endArrow=none;endFill=0;strokeWidth=3;curved=1;strokeColor=#6c8ebf;gradientColor=#7ea6e0;fillColor=#dae8fc;fontColor=#0A1200;fontSize=16;fontStyle=1" edge="1" parent="1" source="15" target="11">
                    <mxGeometry relative="1" as="geometry"/>
                </mxCell>
                <mxCell id="15" value="ratings" style="ellipse;whiteSpace=wrap;html=1;strokeColor=#6c8ebf;gradientColor=#7ea6e0;fillColor=#dae8fc;fontColor=#0A1200;fontSize=16;fontStyle=1" vertex="1" parent="1">
                    <mxGeometry x="820" y="10" width="90" height="40" as="geometry"/>
                </mxCell>
                <mxCell id="16" value="" style="edgeStyle=orthogonalEdgeStyle;orthogonalLoop=1;jettySize=auto;html=1;startArrow=none;startFill=0;endArrow=none;endFill=0;strokeWidth=3;curved=1;strokeColor=#6c8ebf;gradientColor=#7ea6e0;fillColor=#dae8fc;fontColor=#0A1200;fontSize=16;fontStyle=1" edge="1" parent="1" source="17" target="11">
                    <mxGeometry relative="1" as="geometry"/>
                </mxCell>
                <mxCell id="17" value="name" style="ellipse;whiteSpace=wrap;html=1;strokeColor=#6c8ebf;gradientColor=#7ea6e0;fillColor=#dae8fc;fontColor=#0A1200;fontSize=16;fontStyle=1" vertex="1" parent="1">
                    <mxGeometry x="820" y="-40" width="90" height="40" as="geometry"/>
                </mxCell>
                <mxCell id="18" value="Project" style="whiteSpace=wrap;html=1;strokeColor=#6c8ebf;gradientColor=#7ea6e0;fillColor=#dae8fc;fontColor=#0A1200;fontSize=16;fontStyle=1" vertex="1" parent="1">
                    <mxGeometry x="620" y="180" width="120" height="60" as="geometry"/>
                </mxCell>
                <mxCell id="19" value="" style="edgeStyle=orthogonalEdgeStyle;orthogonalLoop=1;jettySize=auto;html=1;startArrow=none;startFill=0;endArrow=none;endFill=0;strokeWidth=3;curved=1;strokeColor=#6c8ebf;gradientColor=#7ea6e0;fillColor=#dae8fc;fontColor=#0A1200;fontSize=16;fontStyle=1" edge="1" parent="1" source="20" target="18">
                    <mxGeometry relative="1" as="geometry"/>
                </mxCell>
                <mxCell id="20" value="project_name" style="ellipse;whiteSpace=wrap;html=1;strokeColor=#6c8ebf;gradientColor=#7ea6e0;fillColor=#dae8fc;fontColor=#0A1200;fontSize=16;fontStyle=1" vertex="1" parent="1">
                    <mxGeometry x="790" y="140" width="140" height="40" as="geometry"/>
                </mxCell>
                <mxCell id="21" value="" style="edgeStyle=orthogonalEdgeStyle;orthogonalLoop=1;jettySize=auto;html=1;startArrow=none;startFill=0;endArrow=none;endFill=0;strokeWidth=3;curved=1;strokeColor=#6c8ebf;gradientColor=#7ea6e0;fillColor=#dae8fc;fontColor=#0A1200;fontSize=16;fontStyle=1" edge="1" parent="1" source="22" target="18">
                    <mxGeometry relative="1" as="geometry"/>
                </mxCell>
                <mxCell id="22" value="ratings" style="ellipse;whiteSpace=wrap;html=1;strokeColor=#6c8ebf;gradientColor=#7ea6e0;fillColor=#dae8fc;fontColor=#0A1200;fontSize=16;fontStyle=1" vertex="1" parent="1">
                    <mxGeometry x="810" y="240" width="90" height="40" as="geometry"/>
                </mxCell>
                <mxCell id="23" value="" style="edgeStyle=orthogonalEdgeStyle;rounded=0;orthogonalLoop=1;jettySize=auto;html=1;startArrow=none;startFill=0;endArrow=none;endFill=0;strokeWidth=3;strokeColor=#6c8ebf;gradientColor=#7ea6e0;fillColor=#dae8fc;fontColor=#0A1200;fontSize=16;fontStyle=1" edge="1" parent="1" source="24" target="18">
                    <mxGeometry relative="1" as="geometry"/>
                </mxCell>
                <mxCell id="24" value="name" style="ellipse;whiteSpace=wrap;html=1;strokeColor=#6c8ebf;gradientColor=#7ea6e0;fillColor=#dae8fc;fontColor=#0A1200;fontSize=16;fontStyle=1" vertex="1" parent="1">
                    <mxGeometry x="810" y="190" width="90" height="40" as="geometry"/>
                </mxCell>
                <mxCell id="25" value="" style="edgeStyle=orthogonalEdgeStyle;orthogonalLoop=1;jettySize=auto;html=1;startArrow=none;startFill=0;endArrow=none;endFill=0;strokeWidth=3;curved=1;strokeColor=#6c8ebf;gradientColor=#7ea6e0;fillColor=#dae8fc;fontColor=#0A1200;fontSize=16;fontStyle=1" edge="1" parent="1" source="26" target="18">
                    <mxGeometry relative="1" as="geometry"/>
                </mxCell>
                <mxCell id="26" value="&lt;span style=&quot;font-family: helvetica; font-size: 16px; font-style: normal; letter-spacing: normal; text-align: center; text-indent: 0px; text-transform: none; word-spacing: 0px; display: inline; float: none;&quot;&gt;reviews&lt;/span&gt;" style="ellipse;whiteSpace=wrap;html=1;strokeColor=#6c8ebf;gradientColor=#7ea6e0;fillColor=#dae8fc;fontColor=#0A1200;labelBackgroundColor=none;fontSize=16;fontStyle=1" vertex="1" parent="1">
                    <mxGeometry x="900" y="220" width="90" height="40" as="geometry"/>
                </mxCell>
                <mxCell id="27" value="" style="edgeStyle=orthogonalEdgeStyle;orthogonalLoop=1;jettySize=auto;html=1;startArrow=none;startFill=0;endArrow=none;endFill=0;strokeWidth=3;curved=1;strokeColor=#6c8ebf;gradientColor=#7ea6e0;fillColor=#dae8fc;fontColor=#0A1200;fontSize=16;fontStyle=1" edge="1" parent="1" source="28" target="11">
                    <mxGeometry relative="1" as="geometry"/>
                </mxCell>
                <mxCell id="28" value="&lt;span style=&quot;font-family: helvetica; font-size: 16px; font-style: normal; letter-spacing: normal; text-align: center; text-indent: 0px; text-transform: none; word-spacing: 0px; display: inline; float: none;&quot;&gt;reviews&lt;/span&gt;" style="ellipse;whiteSpace=wrap;html=1;strokeColor=#6c8ebf;gradientColor=#7ea6e0;fillColor=#dae8fc;fontColor=#0A1200;fontSize=16;fontStyle=1" vertex="1" parent="1">
                    <mxGeometry x="920" y="-10" width="90" height="40" as="geometry"/>
                </mxCell>
                <mxCell id="29" value="" style="edgeStyle=orthogonalEdgeStyle;curved=1;orthogonalLoop=1;jettySize=auto;html=1;startArrow=none;startFill=0;endArrow=none;endFill=0;strokeWidth=3;strokeColor=#6c8ebf;gradientColor=#7ea6e0;fillColor=#dae8fc;fontColor=#0A1200;fontSize=16;fontStyle=1" edge="1" parent="1" source="31" target="36">
                    <mxGeometry relative="1" as="geometry"/>
                </mxCell>
                <mxCell id="30" value="" style="edgeStyle=orthogonalEdgeStyle;curved=1;orthogonalLoop=1;jettySize=auto;html=1;startArrow=none;startFill=0;endArrow=none;endFill=0;strokeWidth=1;strokeColor=#6c8ebf;gradientColor=#7ea6e0;fillColor=#dae8fc;fontColor=#0A1200;fontSize=16;fontStyle=1" edge="1" parent="1" source="31" target="39">
                    <mxGeometry relative="1" as="geometry"/>
                </mxCell>
                <mxCell id="31" value="Skill" style="whiteSpace=wrap;html=1;strokeColor=#6c8ebf;gradientColor=#7ea6e0;fillColor=#dae8fc;fontColor=#0A1200;fontSize=16;fontStyle=1" vertex="1" parent="1">
                    <mxGeometry x="620" y="-270" width="120" height="60" as="geometry"/>
                </mxCell>
                <mxCell id="32" value="" style="edgeStyle=orthogonalEdgeStyle;curved=1;orthogonalLoop=1;jettySize=auto;html=1;startArrow=none;startFill=0;endArrow=none;endFill=0;strokeWidth=3;strokeColor=#6c8ebf;gradientColor=#7ea6e0;fillColor=#dae8fc;fontColor=#0A1200;fontSize=16;fontStyle=1" edge="1" parent="1" source="33" target="31">
                    <mxGeometry relative="1" as="geometry"/>
                </mxCell>
                <mxCell id="33" value="&lt;u style=&quot;font-size: 16px;&quot;&gt;&lt;span style=&quot;font-size: 16px;&quot;&gt;id&lt;/span&gt;&lt;/u&gt;" style="ellipse;whiteSpace=wrap;html=1;strokeColor=#6c8ebf;gradientColor=#7ea6e0;fillColor=#dae8fc;fontColor=#0A1200;fontSize=16;fontStyle=1" vertex="1" parent="1">
                    <mxGeometry x="820" y="-310" width="90" height="40" as="geometry"/>
                </mxCell>
                <mxCell id="34" value="" style="edgeStyle=orthogonalEdgeStyle;curved=1;orthogonalLoop=1;jettySize=auto;html=1;startArrow=none;startFill=0;endArrow=none;endFill=0;strokeWidth=3;strokeColor=#6c8ebf;gradientColor=#7ea6e0;fillColor=#dae8fc;fontColor=#0A1200;fontSize=16;fontStyle=1" edge="1" parent="1" source="35" target="31">
                    <mxGeometry relative="1" as="geometry"/>
                </mxCell>
                <mxCell id="35" value="rate_reco&lt;br style=&quot;font-size: 16px;&quot;&gt;mmendation" style="ellipse;whiteSpace=wrap;html=1;strokeColor=#6c8ebf;gradientColor=#7ea6e0;fillColor=#dae8fc;fontColor=#0A1200;fontSize=16;fontStyle=1" vertex="1" parent="1">
                    <mxGeometry x="820" y="-210" width="150" height="40" as="geometry"/>
                </mxCell>
                <mxCell id="36" value="name" style="ellipse;whiteSpace=wrap;html=1;strokeColor=#6c8ebf;gradientColor=#7ea6e0;fillColor=#dae8fc;fontColor=#0A1200;fontSize=16;fontStyle=1" vertex="1" parent="1">
                    <mxGeometry x="820" y="-260" width="90" height="40" as="geometry"/>
                </mxCell>
                <mxCell id="37" value="" style="edgeStyle=orthogonalEdgeStyle;curved=1;orthogonalLoop=1;jettySize=auto;html=1;startArrow=none;startFill=0;endArrow=none;endFill=0;strokeWidth=3;strokeColor=#6c8ebf;gradientColor=#7ea6e0;fillColor=#dae8fc;fontColor=#0A1200;fontSize=16;fontStyle=1" edge="1" parent="1" source="38" target="11">
                    <mxGeometry relative="1" as="geometry"/>
                </mxCell>
                <mxCell id="38" value="&lt;u style=&quot;font-size: 16px;&quot;&gt;&lt;span style=&quot;font-size: 16px;&quot;&gt;id&lt;/span&gt;&lt;/u&gt;" style="ellipse;whiteSpace=wrap;html=1;strokeColor=#6c8ebf;gradientColor=#7ea6e0;fillColor=#dae8fc;fontColor=#0A1200;fontSize=16;fontStyle=1" vertex="1" parent="1">
                    <mxGeometry x="920" y="-70" width="90" height="40" as="geometry"/>
                </mxCell>
                <mxCell id="39" value="has a" style="rhombus;whiteSpace=wrap;html=1;strokeColor=#6c8ebf;gradientColor=#7ea6e0;fillColor=#dae8fc;fontColor=#0A1200;fontSize=16;fontStyle=1" vertex="1" parent="1">
                    <mxGeometry x="640" y="-160" width="80" height="50" as="geometry"/>
                </mxCell>
                <mxCell id="40" value="" style="edgeStyle=orthogonalEdgeStyle;curved=1;orthogonalLoop=1;jettySize=auto;html=1;startArrow=classic;startFill=1;endArrow=none;endFill=0;strokeWidth=3;strokeColor=#6c8ebf;gradientColor=#7ea6e0;fillColor=#dae8fc;fontColor=#0A1200;fontSize=16;fontStyle=1" edge="1" parent="1" source="43" target="11">
                    <mxGeometry relative="1" as="geometry"/>
                </mxCell>
                <mxCell id="41" value="" style="edgeStyle=orthogonalEdgeStyle;curved=1;orthogonalLoop=1;jettySize=auto;html=1;startArrow=classic;startFill=1;endArrow=none;endFill=0;strokeWidth=3;strokeColor=#6c8ebf;gradientColor=#7ea6e0;fillColor=#dae8fc;fontColor=#0A1200;fontSize=16;fontStyle=1" edge="1" parent="1" source="43" target="18">
                    <mxGeometry relative="1" as="geometry"/>
                </mxCell>
                <mxCell id="42" value="" style="edgeStyle=orthogonalEdgeStyle;curved=1;orthogonalLoop=1;jettySize=auto;html=1;startArrow=classic;startFill=1;endArrow=none;endFill=0;strokeWidth=1;strokeColor=#6c8ebf;gradientColor=#7ea6e0;fillColor=#dae8fc;fontColor=#0A1200;fontSize=16;fontStyle=1" edge="1" parent="1" source="43" target="4">
                    <mxGeometry relative="1" as="geometry"/>
                </mxCell>
                <mxCell id="43" value="has a" style="rhombus;whiteSpace=wrap;html=1;strokeColor=#6c8ebf;gradientColor=#7ea6e0;fillColor=#dae8fc;fontColor=#0A1200;fontSize=16;fontStyle=1" vertex="1" parent="1">
                    <mxGeometry x="500" y="60" width="80" height="60" as="geometry"/>
                </mxCell>
                <mxCell id="44" value="Associate" style="whiteSpace=wrap;html=1;strokeColor=#6c8ebf;gradientColor=#7ea6e0;fillColor=#dae8fc;fontColor=#0A1200;fontSize=16;fontStyle=1" vertex="1" parent="1">
                    <mxGeometry x="50" y="-170" width="120" height="60" as="geometry"/>
                </mxCell>
                <mxCell id="45" value="" style="edgeStyle=orthogonalEdgeStyle;curved=1;orthogonalLoop=1;jettySize=auto;html=1;startArrow=none;startFill=0;endArrow=none;endFill=0;strokeWidth=3;strokeColor=#6c8ebf;gradientColor=#7ea6e0;fillColor=#dae8fc;fontColor=#0A1200;fontSize=16;fontStyle=1" edge="1" parent="1" source="46" target="44">
                    <mxGeometry relative="1" as="geometry"/>
                </mxCell>
                <mxCell id="46" value="&lt;u style=&quot;font-size: 16px;&quot;&gt;&lt;span style=&quot;font-size: 16px;&quot;&gt;id&lt;/span&gt;&lt;/u&gt;" style="ellipse;whiteSpace=wrap;html=1;strokeColor=#6c8ebf;gradientColor=#7ea6e0;fillColor=#dae8fc;fontColor=#0A1200;fontSize=16;fontStyle=1" vertex="1" parent="1">
                    <mxGeometry x="-90" y="-210" width="90" height="40" as="geometry"/>
                </mxCell>
                <mxCell id="47" value="" style="edgeStyle=orthogonalEdgeStyle;curved=1;orthogonalLoop=1;jettySize=auto;html=1;startArrow=none;startFill=0;endArrow=none;endFill=0;strokeWidth=3;strokeColor=#6c8ebf;gradientColor=#7ea6e0;fillColor=#dae8fc;fontColor=#0A1200;fontSize=16;fontStyle=1" edge="1" parent="1" source="48" target="18">
                    <mxGeometry relative="1" as="geometry"/>
                </mxCell>
                <mxCell id="48" value="&lt;u style=&quot;font-size: 16px;&quot;&gt;&lt;span style=&quot;font-size: 16px;&quot;&gt;id&lt;/span&gt;&lt;/u&gt;" style="ellipse;whiteSpace=wrap;html=1;strokeColor=#6c8ebf;gradientColor=#7ea6e0;fillColor=#dae8fc;fontColor=#0A1200;fontSize=16;fontStyle=1" vertex="1" parent="1">
                    <mxGeometry x="930" y="160" width="90" height="40" as="geometry"/>
                </mxCell>
                <mxCell id="49" value="" style="edgeStyle=orthogonalEdgeStyle;curved=1;orthogonalLoop=1;jettySize=auto;html=1;startArrow=none;startFill=0;endArrow=none;endFill=0;strokeWidth=3;strokeColor=#6c8ebf;gradientColor=#7ea6e0;fillColor=#dae8fc;fontColor=#0A1200;fontSize=16;fontStyle=1" edge="1" parent="1" source="51" target="44">
                    <mxGeometry relative="1" as="geometry"/>
                </mxCell>
                <mxCell id="50" value="" style="edgeStyle=orthogonalEdgeStyle;curved=1;orthogonalLoop=1;jettySize=auto;html=1;startArrow=none;startFill=0;endArrow=none;endFill=0;strokeWidth=1;strokeColor=#6c8ebf;gradientColor=#7ea6e0;fillColor=#dae8fc;fontColor=#0A1200;fontSize=16;fontStyle=1" edge="1" parent="1" source="51" target="4">
                    <mxGeometry relative="1" as="geometry"/>
                </mxCell>
                <mxCell id="51" value="has a" style="rhombus;whiteSpace=wrap;html=1;strokeColor=#6c8ebf;gradientColor=#7ea6e0;fillColor=#dae8fc;fontColor=#0A1200;fontSize=16;fontStyle=1" vertex="1" parent="1">
                    <mxGeometry x="75" y="-50" width="70" height="50" as="geometry"/>
                </mxCell>
                <mxCell id="52" value="" style="edgeStyle=orthogonalEdgeStyle;curved=1;orthogonalLoop=1;jettySize=auto;html=1;startArrow=none;startFill=0;endArrow=none;endFill=0;strokeWidth=3;strokeColor=#6c8ebf;gradientColor=#7ea6e0;fillColor=#dae8fc;fontColor=#0A1200;fontSize=16;fontStyle=1" edge="1" parent="1" source="53" target="44">
                    <mxGeometry relative="1" as="geometry"/>
                </mxCell>
                <mxCell id="53" value="user_id" style="ellipse;whiteSpace=wrap;html=1;strokeColor=#6c8ebf;gradientColor=#7ea6e0;fillColor=#dae8fc;fontColor=#0A1200;fontSize=16;fontStyle=1" vertex="1" parent="1">
                    <mxGeometry x="-90" y="-160" width="90" height="40" as="geometry"/>
                </mxCell>
                <mxCell id="54" value="" style="edgeStyle=orthogonalEdgeStyle;curved=1;orthogonalLoop=1;jettySize=auto;html=1;startArrow=none;startFill=0;endArrow=none;endFill=0;strokeWidth=3;strokeColor=#6c8ebf;gradientColor=#7ea6e0;fillColor=#dae8fc;fontColor=#0A1200;fontSize=16;fontStyle=1" edge="1" parent="1" source="55" target="44">
                    <mxGeometry relative="1" as="geometry"/>
                </mxCell>
                <mxCell id="55" value="created" style="ellipse;whiteSpace=wrap;html=1;strokeColor=#6c8ebf;gradientColor=#7ea6e0;fillColor=#dae8fc;fontColor=#0A1200;fontSize=16;fontStyle=1" vertex="1" parent="1">
                    <mxGeometry x="-90" y="-110" width="90" height="40" as="geometry"/>
                </mxCell>
                <mxCell id="56" value="" style="edgeStyle=orthogonalEdgeStyle;curved=1;orthogonalLoop=1;jettySize=auto;html=1;startArrow=none;startFill=0;endArrow=none;endFill=0;strokeWidth=3;strokeColor=#6c8ebf;gradientColor=#7ea6e0;fillColor=#dae8fc;fontColor=#0A1200;fontSize=16;fontStyle=1" edge="1" parent="1" source="57" target="4">
                    <mxGeometry relative="1" as="geometry"/>
                </mxCell>
                <mxCell id="57" value="created" style="ellipse;whiteSpace=wrap;html=1;strokeColor=#6c8ebf;gradientColor=#7ea6e0;fillColor=#dae8fc;fontColor=#0A1200;fontSize=16;fontStyle=1" vertex="1" parent="1">
                    <mxGeometry x="-220" y="100" width="90" height="40" as="geometry"/>
                </mxCell>
                <mxCell id="58" value="" style="edgeStyle=orthogonalEdgeStyle;curved=1;orthogonalLoop=1;jettySize=auto;html=1;startArrow=none;startFill=0;endArrow=none;endFill=0;strokeWidth=3;strokeColor=#6c8ebf;gradientColor=#7ea6e0;fillColor=#dae8fc;fontColor=#0A1200;fontSize=16;fontStyle=1" edge="1" parent="1" source="59" target="18">
                    <mxGeometry relative="1" as="geometry"/>
                </mxCell>
                <mxCell id="59" value="created" style="ellipse;whiteSpace=wrap;html=1;strokeColor=#6c8ebf;gradientColor=#7ea6e0;fillColor=#dae8fc;fontColor=#0A1200;fontSize=16;fontStyle=1" vertex="1" parent="1">
                    <mxGeometry x="810" y="290" width="90" height="40" as="geometry"/>
                </mxCell>
                <mxCell id="60" value="" style="edgeStyle=orthogonalEdgeStyle;curved=1;orthogonalLoop=1;jettySize=auto;html=1;startArrow=none;startFill=0;endArrow=none;endFill=0;strokeWidth=3;strokeColor=#6c8ebf;gradientColor=#7ea6e0;fillColor=#dae8fc;fontColor=#0A1200;fontSize=16;fontStyle=1" edge="1" parent="1" source="61" target="11">
                    <mxGeometry relative="1" as="geometry"/>
                </mxCell>
                <mxCell id="61" value="created" style="ellipse;whiteSpace=wrap;html=1;strokeColor=#6c8ebf;gradientColor=#7ea6e0;fillColor=#dae8fc;fontColor=#0A1200;fontSize=16;fontStyle=1" vertex="1" parent="1">
                    <mxGeometry x="820" y="60" width="90" height="40" as="geometry"/>
                </mxCell>
                <mxCell id="62" value="" style="edgeStyle=orthogonalEdgeStyle;curved=1;orthogonalLoop=1;jettySize=auto;html=1;startArrow=none;startFill=0;endArrow=none;endFill=0;strokeWidth=3;strokeColor=#6c8ebf;gradientColor=#7ea6e0;fillColor=#dae8fc;fontColor=#0A1200;fontSize=16;fontStyle=1" edge="1" parent="1" source="63" target="31">
                    <mxGeometry relative="1" as="geometry"/>
                </mxCell>
                <mxCell id="63" value="created" style="ellipse;whiteSpace=wrap;html=1;strokeColor=#6c8ebf;gradientColor=#7ea6e0;fillColor=#dae8fc;fontColor=#0A1200;fontSize=16;fontStyle=1" vertex="1" parent="1">
                    <mxGeometry x="910" y="-280" width="90" height="40" as="geometry"/>
                </mxCell>
                <mxCell id="64" value="" style="edgeStyle=orthogonalEdgeStyle;curved=1;orthogonalLoop=1;jettySize=auto;html=1;startArrow=none;startFill=0;endArrow=none;endFill=0;strokeWidth=3;strokeColor=#6c8ebf;gradientColor=#7ea6e0;fillColor=#dae8fc;fontColor=#0A1200;fontSize=16;fontStyle=1" edge="1" parent="1" source="65" target="18">
                    <mxGeometry relative="1" as="geometry"/>
                </mxCell>
                <mxCell id="65" value="pay_rate" style="ellipse;whiteSpace=wrap;html=1;strokeColor=#6c8ebf;gradientColor=#7ea6e0;fillColor=#dae8fc;fontColor=#0A1200;fontSize=16;fontStyle=1" vertex="1" parent="1">
                    <mxGeometry x="910" y="270" width="90" height="40" as="geometry"/>
                </mxCell>
                <mxCell id="66" value="" style="edgeStyle=orthogonalEdgeStyle;curved=1;orthogonalLoop=1;jettySize=auto;html=1;startArrow=none;startFill=0;endArrow=none;endFill=0;strokeWidth=3;strokeColor=#6c8ebf;gradientColor=#7ea6e0;fillColor=#dae8fc;fontColor=#0A1200;fontSize=16;fontStyle=1" edge="1" parent="1" source="67" target="11">
                    <mxGeometry relative="1" as="geometry"/>
                </mxCell>
                <mxCell id="67" value="charge_rate" style="ellipse;whiteSpace=wrap;html=1;strokeColor=#6c8ebf;gradientColor=#7ea6e0;fillColor=#dae8fc;fontColor=#0A1200;fontSize=16;fontStyle=1" vertex="1" parent="1">
                    <mxGeometry x="920" y="40" width="90" height="40" as="geometry"/>
                </mxCell>
                <mxCell id="68" value="" style="edgeStyle=orthogonalEdgeStyle;curved=1;orthogonalLoop=1;jettySize=auto;html=1;startArrow=none;startFill=0;endArrow=none;endFill=0;strokeWidth=1;strokeColor=#6c8ebf;gradientColor=#7ea6e0;fillColor=#dae8fc;fontColor=#0A1200;fontSize=16;fontStyle=1" edge="1" parent="1" source="69" target="11">
                    <mxGeometry relative="1" as="geometry"/>
                </mxCell>
                <mxCell id="69" value="jobs_completed" style="ellipse;whiteSpace=wrap;html=1;strokeColor=#6c8ebf;gradientColor=#7ea6e0;fillColor=#dae8fc;fontColor=#0A1200;fontSize=16;fontStyle=1" vertex="1" parent="1">
                    <mxGeometry x="1020" y="-190" width="170" height="50" as="geometry"/>
                </mxCell>
                <mxCell id="70" value="" style="edgeStyle=orthogonalEdgeStyle;curved=1;orthogonalLoop=1;jettySize=auto;html=1;startArrow=none;startFill=0;endArrow=none;endFill=0;strokeWidth=1;strokeColor=#6c8ebf;gradientColor=#7ea6e0;fillColor=#dae8fc;fontColor=#0A1200;fontSize=16;fontStyle=1" edge="1" parent="1" source="71" target="11">
                    <mxGeometry relative="1" as="geometry"/>
                </mxCell>
                <mxCell id="71" value="jobs_not_completed" style="ellipse;whiteSpace=wrap;html=1;strokeColor=#6c8ebf;gradientColor=#7ea6e0;fillColor=#dae8fc;fontColor=#0A1200;fontSize=16;fontStyle=1" vertex="1" parent="1">
                    <mxGeometry x="1020" y="-130" width="190" height="50" as="geometry"/>
                </mxCell>
                <mxCell id="72" value="Message" style="whiteSpace=wrap;html=1;strokeColor=#6c8ebf;gradientColor=#7ea6e0;fillColor=#dae8fc;fontColor=#0A1200;fontSize=16;fontStyle=1" vertex="1" parent="1">
                    <mxGeometry x="50" y="270" width="120" height="60" as="geometry"/>
                </mxCell>
                <mxCell id="73" value="" style="edgeStyle=orthogonalEdgeStyle;curved=1;orthogonalLoop=1;jettySize=auto;html=1;startArrow=none;startFill=0;endArrow=none;endFill=0;strokeWidth=3;strokeColor=#6c8ebf;gradientColor=#7ea6e0;fillColor=#dae8fc;fontColor=#0A1200;fontSize=16;fontStyle=1" edge="1" parent="1" source="74" target="72">
                    <mxGeometry relative="1" as="geometry"/>
                </mxCell>
                <mxCell id="74" value="&lt;u style=&quot;font-size: 16px;&quot;&gt;&lt;span style=&quot;font-size: 16px;&quot;&gt;id&lt;/span&gt;&lt;/u&gt;" style="ellipse;whiteSpace=wrap;html=1;strokeColor=#6c8ebf;gradientColor=#7ea6e0;fillColor=#dae8fc;fontColor=#0A1200;fontSize=16;fontStyle=1" vertex="1" parent="1">
                    <mxGeometry x="-30" y="350" width="120" height="50" as="geometry"/>
                </mxCell>
                <mxCell id="75" value="" style="edgeStyle=orthogonalEdgeStyle;curved=1;orthogonalLoop=1;jettySize=auto;html=1;startArrow=none;startFill=0;endArrow=none;endFill=0;strokeWidth=3;strokeColor=#6c8ebf;gradientColor=#7ea6e0;fillColor=#dae8fc;fontColor=#0A1200;fontSize=16;fontStyle=1" edge="1" parent="1" source="76" target="72">
                    <mxGeometry relative="1" as="geometry"/>
                </mxCell>
                <mxCell id="76" value="message_text" style="ellipse;whiteSpace=wrap;html=1;strokeColor=#6c8ebf;gradientColor=#7ea6e0;fillColor=#dae8fc;fontColor=#0A1200;fontSize=16;fontStyle=1" vertex="1" parent="1">
                    <mxGeometry x="40" y="450" width="120" height="50" as="geometry"/>
                </mxCell>
                <mxCell id="77" value="" style="edgeStyle=orthogonalEdgeStyle;curved=1;orthogonalLoop=1;jettySize=auto;html=1;startArrow=none;startFill=0;endArrow=none;endFill=0;strokeWidth=3;strokeColor=#6c8ebf;gradientColor=#7ea6e0;fillColor=#dae8fc;fontColor=#0A1200;fontSize=16;fontStyle=1" edge="1" parent="1" source="78" target="72">
                    <mxGeometry relative="1" as="geometry"/>
                </mxCell>
                <mxCell id="78" value="created" style="ellipse;whiteSpace=wrap;html=1;strokeColor=#6c8ebf;gradientColor=#7ea6e0;fillColor=#dae8fc;fontColor=#0A1200;fontSize=16;fontStyle=1" vertex="1" parent="1">
                    <mxGeometry x="170" y="440" width="120" height="50" as="geometry"/>
                </mxCell>
                <mxCell id="79" value="" style="edgeStyle=orthogonalEdgeStyle;curved=1;orthogonalLoop=1;jettySize=auto;html=1;startArrow=none;startFill=0;endArrow=none;endFill=0;strokeWidth=3;strokeColor=#6c8ebf;gradientColor=#7ea6e0;fillColor=#dae8fc;fontColor=#0A1200;fontSize=16;fontStyle=1" edge="1" parent="1" source="80" target="72">
                    <mxGeometry relative="1" as="geometry"/>
                </mxCell>
                <mxCell id="80" value="user_id" style="ellipse;whiteSpace=wrap;html=1;strokeColor=#6c8ebf;gradientColor=#7ea6e0;fillColor=#dae8fc;fontColor=#0A1200;fontSize=16;fontStyle=1" vertex="1" parent="1">
                    <mxGeometry y="400" width="120" height="50" as="geometry"/>
                </mxCell>
                <mxCell id="81" value="" style="edgeStyle=orthogonalEdgeStyle;curved=1;orthogonalLoop=1;jettySize=auto;html=1;startArrow=none;startFill=0;endArrow=none;endFill=0;strokeWidth=1;strokeColor=#6c8ebf;gradientColor=#7ea6e0;fillColor=#dae8fc;fontColor=#0A1200;fontSize=16;fontStyle=1" edge="1" parent="1" source="83" target="4">
                    <mxGeometry relative="1" as="geometry"/>
                </mxCell>
                <mxCell id="82" value="" style="edgeStyle=orthogonalEdgeStyle;curved=1;orthogonalLoop=1;jettySize=auto;html=1;startArrow=classic;startFill=1;endArrow=none;endFill=0;strokeWidth=3;strokeColor=#6c8ebf;gradientColor=#7ea6e0;fillColor=#dae8fc;fontColor=#0A1200;fontSize=16;fontStyle=1" edge="1" parent="1" source="83" target="72">
                    <mxGeometry relative="1" as="geometry"/>
                </mxCell>
                <mxCell id="83" value="has a" style="rhombus;whiteSpace=wrap;html=1;strokeColor=#6c8ebf;gradientColor=#7ea6e0;fillColor=#dae8fc;fontColor=#0A1200;fontSize=16;fontStyle=1" vertex="1" parent="1">
                    <mxGeometry x="66.25" y="160" width="87.5" height="60" as="geometry"/>
                </mxCell>
                <mxCell id="84" value="Bank Account" style="whiteSpace=wrap;html=1;strokeColor=#6c8ebf;gradientColor=#7ea6e0;fillColor=#dae8fc;fontColor=#0A1200;fontSize=16;fontStyle=1" vertex="1" parent="1">
                    <mxGeometry x="280" y="-165" width="120" height="60" as="geometry"/>
                </mxCell>
                <mxCell id="85" value="" style="edgeStyle=orthogonalEdgeStyle;curved=1;orthogonalLoop=1;jettySize=auto;html=1;startArrow=none;startFill=0;endArrow=none;endFill=0;strokeWidth=3;strokeColor=#6c8ebf;gradientColor=#7ea6e0;fillColor=#dae8fc;fontColor=#0A1200;fontSize=16;fontStyle=1" edge="1" parent="1" source="86" target="84">
                    <mxGeometry relative="1" as="geometry"/>
                </mxCell>
                <mxCell id="86" value="&lt;u style=&quot;font-size: 16px;&quot;&gt;&lt;span style=&quot;font-size: 16px;&quot;&gt;id&lt;/span&gt;&lt;/u&gt;" style="ellipse;whiteSpace=wrap;html=1;strokeColor=#6c8ebf;gradientColor=#7ea6e0;fillColor=#dae8fc;fontColor=#0A1200;fontSize=16;fontStyle=1" vertex="1" parent="1">
                    <mxGeometry x="160" y="-280" width="120" height="50" as="geometry"/>
                </mxCell>
                <mxCell id="87" value="" style="edgeStyle=orthogonalEdgeStyle;curved=1;orthogonalLoop=1;jettySize=auto;html=1;startArrow=none;startFill=0;endArrow=none;endFill=0;strokeWidth=3;strokeColor=#6c8ebf;gradientColor=#7ea6e0;fillColor=#dae8fc;fontColor=#0A1200;fontSize=16;fontStyle=1" edge="1" parent="1" source="88" target="84">
                    <mxGeometry relative="1" as="geometry"/>
                </mxCell>
                <mxCell id="88" value="routing_num" style="ellipse;whiteSpace=wrap;html=1;strokeColor=#6c8ebf;gradientColor=#7ea6e0;fillColor=#dae8fc;fontColor=#0A1200;fontSize=16;fontStyle=1" vertex="1" parent="1">
                    <mxGeometry x="220" y="-350" width="120" height="50" as="geometry"/>
                </mxCell>
                <mxCell id="89" value="" style="edgeStyle=orthogonalEdgeStyle;curved=1;orthogonalLoop=1;jettySize=auto;html=1;startArrow=none;startFill=0;endArrow=none;endFill=0;strokeWidth=3;strokeColor=#6c8ebf;gradientColor=#7ea6e0;fillColor=#dae8fc;fontColor=#0A1200;fontSize=16;fontStyle=1" edge="1" parent="1" source="90" target="84">
                    <mxGeometry relative="1" as="geometry"/>
                </mxCell>
                <mxCell id="90" value="acct_num" style="ellipse;whiteSpace=wrap;html=1;strokeWidth=1;strokeColor=#6c8ebf;gradientColor=#7ea6e0;fillColor=#dae8fc;fontColor=#0A1200;fontSize=16;fontStyle=1" vertex="1" parent="1">
                    <mxGeometry x="300" y="-300" width="120" height="50" as="geometry"/>
                </mxCell>
                <mxCell id="91" value="" style="edgeStyle=orthogonalEdgeStyle;curved=1;orthogonalLoop=1;jettySize=auto;html=1;startArrow=none;startFill=0;endArrow=none;endFill=0;strokeWidth=3;strokeColor=#6c8ebf;gradientColor=#7ea6e0;fillColor=#dae8fc;fontColor=#0A1200;fontSize=16;fontStyle=1" edge="1" parent="1" source="92" target="84">
                    <mxGeometry relative="1" as="geometry">
                        <Array as="points">
                            <mxPoint x="340" y="-215"/>
                        </Array>
                    </mxGeometry>
                </mxCell>
                <mxCell id="92" value="created" style="ellipse;whiteSpace=wrap;html=1;strokeColor=#6c8ebf;gradientColor=#7ea6e0;fillColor=#dae8fc;fontColor=#0A1200;fontSize=16;fontStyle=1" vertex="1" parent="1">
                    <mxGeometry x="410" y="-240" width="120" height="50" as="geometry"/>
                </mxCell>
                <mxCell id="93" value="" style="edgeStyle=orthogonalEdgeStyle;curved=1;orthogonalLoop=1;jettySize=auto;html=1;startArrow=none;startFill=0;endArrow=none;endFill=0;strokeWidth=1;strokeColor=#6c8ebf;gradientColor=#7ea6e0;fillColor=#dae8fc;fontColor=#0A1200;fontSize=16;fontStyle=1" edge="1" parent="1" source="95" target="4">
                    <mxGeometry relative="1" as="geometry">
                        <Array as="points">
                            <mxPoint x="255" y="40"/>
                            <mxPoint x="110" y="40"/>
                        </Array>
                    </mxGeometry>
                </mxCell>
                <mxCell id="94" value="" style="edgeStyle=orthogonalEdgeStyle;curved=1;orthogonalLoop=1;jettySize=auto;html=1;startArrow=none;startFill=0;endArrow=none;endFill=0;strokeWidth=3;strokeColor=#6c8ebf;gradientColor=#7ea6e0;fillColor=#dae8fc;fontColor=#0A1200;fontSize=16;fontStyle=1" edge="1" parent="1" source="95" target="84">
                    <mxGeometry relative="1" as="geometry">
                        <Array as="points">
                            <mxPoint x="240" y="-135"/>
                        </Array>
                    </mxGeometry>
                </mxCell>
                <mxCell id="95" value="has a" style="rhombus;whiteSpace=wrap;html=1;strokeWidth=1;strokeColor=#6c8ebf;gradientColor=#7ea6e0;fillColor=#dae8fc;fontColor=#0A1200;fontSize=16;fontStyle=1" vertex="1" parent="1">
                    <mxGeometry x="210" y="-60" width="80" height="60" as="geometry"/>
                </mxCell>
                <mxCell id="96" value="" style="edgeStyle=orthogonalEdgeStyle;curved=1;orthogonalLoop=1;jettySize=auto;html=1;startArrow=none;startFill=0;endArrow=none;endFill=0;strokeWidth=3;strokeColor=#6c8ebf;gradientColor=#7ea6e0;fillColor=#dae8fc;fontColor=#0A1200;fontSize=16;fontStyle=1" edge="1" parent="1" source="97" target="4">
                    <mxGeometry relative="1" as="geometry"/>
                </mxCell>
                <mxCell id="97" value="age" style="ellipse;whiteSpace=wrap;html=1;strokeColor=#6c8ebf;gradientColor=#7ea6e0;fillColor=#dae8fc;fontColor=#0A1200;fontSize=16;fontStyle=1" vertex="1" parent="1">
                    <mxGeometry x="-220" y="30" width="90" height="40" as="geometry"/>
                </mxCell>
                <mxCell id="98" value="" style="edgeStyle=orthogonalEdgeStyle;orthogonalLoop=1;jettySize=auto;html=1;curved=1;strokeWidth=3;fillColor=#cce5ff;strokeColor=#6C8EBF;fontSize=16;fontStyle=1" edge="1" parent="1" source="99">
                    <mxGeometry relative="1" as="geometry">
                        <mxPoint x="340" y="-170" as="targetPoint"/>
                        <Array as="points">
                            <mxPoint x="420" y="-315"/>
                            <mxPoint x="420" y="-190"/>
                            <mxPoint x="340" y="-190"/>
                        </Array>
                    </mxGeometry>
                </mxCell>
                <mxCell id="99" value="name" style="ellipse;whiteSpace=wrap;html=1;strokeColor=#6c8ebf;gradientColor=#7ea6e0;fillColor=#dae8fc;fontColor=#0A1200;fontSize=16;fontStyle=1" vertex="1" parent="1">
                    <mxGeometry x="430" y="-340" width="120" height="50" as="geometry"/>
                </mxCell>
                <mxCell id="104" value="" style="edgeStyle=none;curved=1;html=1;fontSize=16;startArrow=none;startFill=0;endArrow=none;endFill=0;gradientColor=#7ea6e0;fillColor=#dae8fc;strokeColor=#6c8ebf;entryX=1;entryY=0.5;entryDx=0;entryDy=0;" edge="1" parent="1" source="100" target="102">
                    <mxGeometry relative="1" as="geometry"/>
                </mxCell>
                <mxCell id="112" style="edgeStyle=none;curved=1;html=1;exitX=0.5;exitY=1;exitDx=0;exitDy=0;entryX=0.5;entryY=0;entryDx=0;entryDy=0;fontSize=16;startArrow=none;startFill=0;endArrow=none;endFill=0;strokeWidth=3;gradientColor=#7ea6e0;fillColor=#dae8fc;strokeColor=#6c8ebf;" edge="1" parent="1" source="100" target="108">
                    <mxGeometry relative="1" as="geometry">
                        <Array as="points">
                            <mxPoint x="400" y="350"/>
                        </Array>
                    </mxGeometry>
                </mxCell>
                <mxCell id="113" style="edgeStyle=none;curved=1;html=1;exitX=0.5;exitY=1;exitDx=0;exitDy=0;entryX=0.5;entryY=0;entryDx=0;entryDy=0;fontSize=16;startArrow=none;startFill=0;endArrow=none;endFill=0;strokeWidth=3;gradientColor=#7ea6e0;fillColor=#dae8fc;strokeColor=#6c8ebf;" edge="1" parent="1" source="100" target="106">
                    <mxGeometry relative="1" as="geometry"/>
                </mxCell>
                <mxCell id="114" style="edgeStyle=none;curved=1;html=1;exitX=0.5;exitY=1;exitDx=0;exitDy=0;entryX=0;entryY=0;entryDx=0;entryDy=0;fontSize=16;startArrow=none;startFill=0;endArrow=none;endFill=0;strokeWidth=3;gradientColor=#7ea6e0;fillColor=#dae8fc;strokeColor=#6c8ebf;" edge="1" parent="1" source="100" target="109">
                    <mxGeometry relative="1" as="geometry">
                        <Array as="points">
                            <mxPoint x="400" y="350"/>
                        </Array>
                    </mxGeometry>
                </mxCell>
                <mxCell id="115" style="edgeStyle=none;curved=1;html=1;exitX=0.5;exitY=1;exitDx=0;exitDy=0;entryX=0;entryY=0;entryDx=0;entryDy=0;fontSize=16;startArrow=none;startFill=0;endArrow=none;endFill=0;strokeWidth=3;gradientColor=#7ea6e0;fillColor=#dae8fc;strokeColor=#6c8ebf;" edge="1" parent="1" source="100" target="107">
                    <mxGeometry relative="1" as="geometry">
                        <Array as="points">
                            <mxPoint x="450" y="300"/>
                        </Array>
                    </mxGeometry>
                </mxCell>
                <mxCell id="100" value="Reel Post" style="whiteSpace=wrap;html=1;strokeColor=#6c8ebf;gradientColor=#7ea6e0;fillColor=#dae8fc;fontColor=#0A1200;fontSize=16;fontStyle=1" vertex="1" parent="1">
                    <mxGeometry x="370" y="170" width="120" height="60" as="geometry"/>
                </mxCell>
                <mxCell id="102" value="has a" style="rhombus;whiteSpace=wrap;html=1;strokeColor=#6c8ebf;gradientColor=#7ea6e0;fillColor=#dae8fc;fontColor=#0A1200;fontSize=16;fontStyle=1" vertex="1" parent="1">
                    <mxGeometry x="240" y="130" width="80" height="60" as="geometry"/>
                </mxCell>
                <mxCell id="111" value="" style="edgeStyle=none;curved=1;html=1;fontSize=16;startArrow=none;startFill=0;endArrow=none;endFill=0;gradientColor=#7ea6e0;fillColor=#dae8fc;strokeColor=#6c8ebf;strokeWidth=3;entryX=0.5;entryY=1;entryDx=0;entryDy=0;" edge="1" parent="1" source="105" target="100">
                    <mxGeometry relative="1" as="geometry">
                        <mxPoint x="430" y="220" as="targetPoint"/>
                        <Array as="points">
                            <mxPoint x="390" y="290"/>
                        </Array>
                    </mxGeometry>
                </mxCell>
                <mxCell id="105" value="&lt;u style=&quot;font-size: 16px;&quot;&gt;&lt;span style=&quot;font-size: 16px;&quot;&gt;id&lt;/span&gt;&lt;/u&gt;" style="ellipse;whiteSpace=wrap;html=1;strokeColor=#6c8ebf;gradientColor=#7ea6e0;fillColor=#dae8fc;fontColor=#0A1200;fontSize=16;fontStyle=1" vertex="1" parent="1">
                    <mxGeometry x="250" y="310" width="120" height="50" as="geometry"/>
                </mxCell>
                <mxCell id="106" value="post_text" style="ellipse;whiteSpace=wrap;html=1;strokeColor=#6c8ebf;gradientColor=#7ea6e0;fillColor=#dae8fc;fontColor=#0A1200;fontSize=16;fontStyle=1" vertex="1" parent="1">
                    <mxGeometry x="340" y="425" width="120" height="50" as="geometry"/>
                </mxCell>
                <mxCell id="107" value="created" style="ellipse;whiteSpace=wrap;html=1;strokeColor=#6c8ebf;gradientColor=#7ea6e0;fillColor=#dae8fc;fontColor=#0A1200;fontSize=16;fontStyle=1" vertex="1" parent="1">
                    <mxGeometry x="480" y="350" width="120" height="50" as="geometry"/>
                </mxCell>
                <mxCell id="108" value="user_id" style="ellipse;whiteSpace=wrap;html=1;strokeColor=#6c8ebf;gradientColor=#7ea6e0;fillColor=#dae8fc;fontColor=#0A1200;fontSize=16;fontStyle=1" vertex="1" parent="1">
                    <mxGeometry x="270" y="375" width="120" height="50" as="geometry"/>
                </mxCell>
                <mxCell id="109" value="image" style="ellipse;whiteSpace=wrap;html=1;strokeColor=#6c8ebf;gradientColor=#7ea6e0;fillColor=#dae8fc;fontColor=#0A1200;fontSize=16;fontStyle=1" vertex="1" parent="1">
                    <mxGeometry x="470" y="425" width="120" height="50" as="geometry"/>
                </mxCell>
                <mxCell id="125" style="edgeStyle=none;curved=1;html=1;exitX=0.5;exitY=1;exitDx=0;exitDy=0;fontSize=16;startArrow=none;startFill=0;endArrow=none;endFill=0;strokeWidth=3;gradientColor=#7ea6e0;fillColor=#dae8fc;strokeColor=#6c8ebf;" edge="1" parent="1" source="116" target="124">
                    <mxGeometry relative="1" as="geometry">
                        <Array as="points">
                            <mxPoint x="-200" y="530"/>
                        </Array>
                    </mxGeometry>
                </mxCell>
                <mxCell id="166" style="edgeStyle=none;curved=1;html=1;exitX=0;exitY=1;exitDx=0;exitDy=0;entryX=1;entryY=0.5;entryDx=0;entryDy=0;fontSize=16;startArrow=none;startFill=0;endArrow=none;endFill=0;strokeWidth=3;gradientColor=#7ea6e0;fillColor=#dae8fc;strokeColor=#6c8ebf;" edge="1" parent="1" source="116" target="165">
                    <mxGeometry relative="1" as="geometry"/>
                </mxCell>
                <mxCell id="116" value="KYC" style="whiteSpace=wrap;html=1;strokeColor=#6c8ebf;gradientColor=#7ea6e0;fillColor=#dae8fc;fontColor=#0A1200;fontSize=16;fontStyle=1" vertex="1" parent="1">
                    <mxGeometry x="-240" y="360" width="120" height="60" as="geometry"/>
                </mxCell>
                <mxCell id="117" value="" style="edgeStyle=orthogonalEdgeStyle;curved=1;orthogonalLoop=1;jettySize=auto;html=1;startArrow=none;startFill=0;endArrow=none;endFill=0;strokeWidth=3;strokeColor=#6c8ebf;gradientColor=#7ea6e0;fillColor=#dae8fc;fontColor=#0A1200;fontSize=16;fontStyle=1" edge="1" parent="1" source="118" target="116">
                    <mxGeometry relative="1" as="geometry"/>
                </mxCell>
                <mxCell id="118" value="user_id" style="ellipse;whiteSpace=wrap;html=1;strokeColor=#6c8ebf;gradientColor=#7ea6e0;fillColor=#dae8fc;fontColor=#0A1200;fontSize=16;fontStyle=1" vertex="1" parent="1">
                    <mxGeometry x="-320" y="540" width="120" height="50" as="geometry"/>
                </mxCell>
                <mxCell id="119" value="" style="edgeStyle=orthogonalEdgeStyle;curved=1;orthogonalLoop=1;jettySize=auto;html=1;startArrow=none;startFill=0;endArrow=none;endFill=0;strokeWidth=3;strokeColor=#6c8ebf;gradientColor=#7ea6e0;fillColor=#dae8fc;fontColor=#0A1200;fontSize=16;fontStyle=1;exitX=0.5;exitY=0;exitDx=0;exitDy=0;" edge="1" parent="1" target="116" source="123">
                    <mxGeometry relative="1" as="geometry">
                        <mxPoint x="-230" y="490" as="sourcePoint"/>
                    </mxGeometry>
                </mxCell>
                <mxCell id="120" value="" style="edgeStyle=orthogonalEdgeStyle;curved=1;orthogonalLoop=1;jettySize=auto;html=1;startArrow=classic;startFill=1;endArrow=none;endFill=0;strokeWidth=3;strokeColor=#6c8ebf;gradientColor=#7ea6e0;fillColor=#dae8fc;fontColor=#0A1200;fontSize=16;fontStyle=1" edge="1" parent="1" source="121" target="116">
                    <mxGeometry relative="1" as="geometry"/>
                </mxCell>
                <mxCell id="121" value="has a" style="rhombus;whiteSpace=wrap;html=1;strokeColor=#6c8ebf;gradientColor=#7ea6e0;fillColor=#dae8fc;fontColor=#0A1200;fontSize=16;fontStyle=1" vertex="1" parent="1">
                    <mxGeometry x="-223.75" y="250" width="87.5" height="60" as="geometry"/>
                </mxCell>
                <mxCell id="123" value="&lt;u style=&quot;font-size: 16px;&quot;&gt;&lt;span style=&quot;font-size: 16px;&quot;&gt;id&lt;/span&gt;&lt;/u&gt;" style="ellipse;whiteSpace=wrap;html=1;strokeColor=#6c8ebf;gradientColor=#7ea6e0;fillColor=#dae8fc;fontColor=#0A1200;fontSize=16;fontStyle=1" vertex="1" parent="1">
                    <mxGeometry x="-343.75" y="480" width="120" height="50" as="geometry"/>
                </mxCell>
                <mxCell id="124" value="id_docs" style="ellipse;whiteSpace=wrap;html=1;strokeColor=#6c8ebf;gradientColor=#7ea6e0;fillColor=#dae8fc;fontColor=#0A1200;fontSize=16;fontStyle=1" vertex="1" parent="1">
                    <mxGeometry x="-200" y="560" width="120" height="50" as="geometry"/>
                </mxCell>
                <mxCell id="126" value="" style="edgeStyle=orthogonalEdgeStyle;curved=1;orthogonalLoop=1;jettySize=auto;html=1;startArrow=none;startFill=0;endArrow=none;endFill=0;strokeWidth=3;strokeColor=#6c8ebf;gradientColor=#7ea6e0;fillColor=#dae8fc;fontColor=#0A1200;fontSize=16;fontStyle=1" edge="1" parent="1" source="127">
                    <mxGeometry relative="1" as="geometry">
                        <mxPoint x="-180" y="420" as="targetPoint"/>
                    </mxGeometry>
                </mxCell>
                <mxCell id="127" value="face_photo" style="ellipse;whiteSpace=wrap;html=1;strokeColor=#6c8ebf;gradientColor=#7ea6e0;fillColor=#dae8fc;fontColor=#0A1200;fontSize=16;fontStyle=1" vertex="1" parent="1">
                    <mxGeometry x="-150" y="440" width="120" height="50" as="geometry"/>
                </mxCell>
                <mxCell id="128" value="" style="edgeStyle=orthogonalEdgeStyle;curved=1;orthogonalLoop=1;jettySize=auto;html=1;startArrow=none;startFill=0;endArrow=none;endFill=0;strokeWidth=3;strokeColor=#6c8ebf;gradientColor=#7ea6e0;fillColor=#dae8fc;fontColor=#0A1200;fontSize=16;fontStyle=1" edge="1" parent="1" source="129">
                    <mxGeometry relative="1" as="geometry">
                        <mxPoint x="-180" y="420" as="targetPoint"/>
                    </mxGeometry>
                </mxCell>
                <mxCell id="129" value="video_message" style="ellipse;whiteSpace=wrap;html=1;strokeColor=#6c8ebf;gradientColor=#7ea6e0;fillColor=#dae8fc;fontColor=#0A1200;fontSize=16;fontStyle=1" vertex="1" parent="1">
                    <mxGeometry x="-160" y="500" width="160" height="50" as="geometry"/>
                </mxCell>
                <mxCell id="146" value="" style="edgeStyle=none;curved=1;html=1;fontSize=16;startArrow=none;startFill=0;endArrow=classic;endFill=1;strokeWidth=1;gradientColor=#7ea6e0;fillColor=#dae8fc;strokeColor=#6c8ebf;" edge="1" parent="1" source="143" target="145">
                    <mxGeometry relative="1" as="geometry"/>
                </mxCell>
                <mxCell id="143" value="has a" style="rhombus;whiteSpace=wrap;html=1;strokeColor=#6c8ebf;gradientColor=#7ea6e0;fillColor=#dae8fc;fontColor=#0A1200;fontSize=16;fontStyle=1" vertex="1" parent="1">
                    <mxGeometry x="-287.5" y="-150" width="87.5" height="60" as="geometry"/>
                </mxCell>
                <mxCell id="150" style="edgeStyle=none;curved=1;html=1;exitX=0.5;exitY=0;exitDx=0;exitDy=0;fontSize=16;startArrow=none;startFill=0;endArrow=none;endFill=0;strokeWidth=3;gradientColor=#7ea6e0;fillColor=#dae8fc;strokeColor=#6c8ebf;entryX=0.5;entryY=1;entryDx=0;entryDy=0;" edge="1" parent="1" source="145" target="147">
                    <mxGeometry relative="1" as="geometry">
                        <mxPoint x="-244" y="-380" as="targetPoint"/>
                        <Array as="points">
                            <mxPoint x="-250" y="-310"/>
                            <mxPoint x="-244" y="-350"/>
                        </Array>
                    </mxGeometry>
                </mxCell>
                <mxCell id="151" style="edgeStyle=none;curved=1;html=1;exitX=0.5;exitY=0;exitDx=0;exitDy=0;entryX=0;entryY=0.5;entryDx=0;entryDy=0;fontSize=16;startArrow=none;startFill=0;endArrow=none;endFill=0;strokeWidth=3;gradientColor=#7ea6e0;fillColor=#dae8fc;strokeColor=#6c8ebf;" edge="1" parent="1" source="145" target="149">
                    <mxGeometry relative="1" as="geometry">
                        <Array as="points">
                            <mxPoint x="-244" y="-330"/>
                        </Array>
                    </mxGeometry>
                </mxCell>
                <mxCell id="152" style="edgeStyle=none;curved=1;html=1;exitX=0.5;exitY=0;exitDx=0;exitDy=0;entryX=1;entryY=0.5;entryDx=0;entryDy=0;fontSize=16;startArrow=none;startFill=0;endArrow=none;endFill=0;strokeWidth=3;gradientColor=#7ea6e0;fillColor=#dae8fc;strokeColor=#6c8ebf;" edge="1" parent="1" source="145" target="148">
                    <mxGeometry relative="1" as="geometry">
                        <Array as="points">
                            <mxPoint x="-230" y="-330"/>
                        </Array>
                    </mxGeometry>
                </mxCell>
                <mxCell id="167" style="edgeStyle=none;curved=1;html=1;exitX=0.5;exitY=0;exitDx=0;exitDy=0;entryX=0;entryY=1;entryDx=0;entryDy=0;fontSize=16;startArrow=none;startFill=0;endArrow=none;endFill=0;strokeWidth=3;gradientColor=#7ea6e0;fillColor=#dae8fc;strokeColor=#6c8ebf;" edge="1" parent="1" source="145" target="163">
                    <mxGeometry relative="1" as="geometry">
                        <Array as="points">
                            <mxPoint x="-244" y="-370"/>
                        </Array>
                    </mxGeometry>
                </mxCell>
                <mxCell id="145" value="Favorite" style="whiteSpace=wrap;html=1;strokeColor=#6c8ebf;gradientColor=#7ea6e0;fillColor=#dae8fc;fontColor=#0A1200;fontSize=16;fontStyle=1" vertex="1" parent="1">
                    <mxGeometry x="-303.75" y="-280" width="120" height="60" as="geometry"/>
                </mxCell>
                <mxCell id="147" value="user_id" style="ellipse;whiteSpace=wrap;html=1;strokeColor=#6c8ebf;gradientColor=#7ea6e0;fillColor=#dae8fc;fontColor=#0A1200;fontSize=16;fontStyle=1" vertex="1" parent="1">
                    <mxGeometry x="-390" y="-445" width="120" height="50" as="geometry"/>
                </mxCell>
                <mxCell id="148" value="&lt;u style=&quot;font-size: 16px;&quot;&gt;&lt;span style=&quot;font-size: 16px;&quot;&gt;id&lt;/span&gt;&lt;/u&gt;" style="ellipse;whiteSpace=wrap;html=1;strokeColor=#6c8ebf;gradientColor=#7ea6e0;fillColor=#dae8fc;fontColor=#0A1200;fontSize=16;fontStyle=1" vertex="1" parent="1">
                    <mxGeometry x="-407.5" y="-370" width="120" height="50" as="geometry"/>
                </mxCell>
                <mxCell id="149" value="fav_user_id" style="ellipse;whiteSpace=wrap;html=1;strokeColor=#6c8ebf;gradientColor=#7ea6e0;fillColor=#dae8fc;fontColor=#0A1200;fontSize=16;fontStyle=1" vertex="1" parent="1">
                    <mxGeometry x="-200" y="-370" width="120" height="50" as="geometry"/>
                </mxCell>
                <mxCell id="153" value="&lt;font style=&quot;font-size: 32px&quot; color=&quot;#000000&quot;&gt;&lt;b style=&quot;background-color: rgb(65 , 255 , 36)&quot;&gt;Database Schema&lt;/b&gt;&lt;/font&gt;" style="text;html=1;align=center;verticalAlign=middle;resizable=0;points=[];autosize=1;strokeColor=none;fontSize=16;" vertex="1" parent="1">
                    <mxGeometry x="210" y="-425" width="290" height="30" as="geometry"/>
                </mxCell>
                <mxCell id="169" style="edgeStyle=none;curved=1;html=1;exitX=0.5;exitY=0;exitDx=0;exitDy=0;entryX=1;entryY=0.5;entryDx=0;entryDy=0;fontSize=16;startArrow=none;startFill=0;endArrow=none;endFill=0;strokeWidth=3;gradientColor=#7ea6e0;fillColor=#dae8fc;strokeColor=#6c8ebf;" edge="1" parent="1" source="154" target="160">
                    <mxGeometry relative="1" as="geometry">
                        <Array as="points">
                            <mxPoint x="-430" y="130"/>
                        </Array>
                    </mxGeometry>
                </mxCell>
                <mxCell id="170" style="edgeStyle=none;curved=1;html=1;exitX=0.5;exitY=0;exitDx=0;exitDy=0;entryX=1;entryY=0.5;entryDx=0;entryDy=0;fontSize=16;startArrow=none;startFill=0;endArrow=none;endFill=0;strokeWidth=3;gradientColor=#7ea6e0;fillColor=#dae8fc;strokeColor=#6c8ebf;" edge="1" parent="1" source="154" target="162">
                    <mxGeometry relative="1" as="geometry">
                        <Array as="points">
                            <mxPoint x="-440" y="90"/>
                        </Array>
                    </mxGeometry>
                </mxCell>
                <mxCell id="171" style="edgeStyle=none;curved=1;html=1;exitX=0.5;exitY=0;exitDx=0;exitDy=0;entryX=1;entryY=0.5;entryDx=0;entryDy=0;fontSize=16;startArrow=none;startFill=0;endArrow=none;endFill=0;strokeWidth=3;gradientColor=#7ea6e0;fillColor=#dae8fc;strokeColor=#6c8ebf;" edge="1" parent="1" source="154" target="164">
                    <mxGeometry relative="1" as="geometry">
                        <Array as="points">
                            <mxPoint x="-420" y="30"/>
                        </Array>
                    </mxGeometry>
                </mxCell>
                <mxCell id="174" style="edgeStyle=none;curved=1;html=1;exitX=0.5;exitY=0;exitDx=0;exitDy=0;entryX=0;entryY=0.5;entryDx=0;entryDy=0;fontSize=16;startArrow=none;startFill=0;endArrow=none;endFill=0;strokeWidth=3;gradientColor=#7ea6e0;fillColor=#dae8fc;strokeColor=#6c8ebf;" edge="1" parent="1" source="154" target="172">
                    <mxGeometry relative="1" as="geometry"/>
                </mxCell>
                <mxCell id="175" style="edgeStyle=none;curved=1;html=1;exitX=0.5;exitY=0;exitDx=0;exitDy=0;entryX=0;entryY=0.5;entryDx=0;entryDy=0;fontSize=16;startArrow=none;startFill=0;endArrow=none;endFill=0;strokeWidth=3;gradientColor=#7ea6e0;fillColor=#dae8fc;strokeColor=#6c8ebf;" edge="1" parent="1" source="154" target="173">
                    <mxGeometry relative="1" as="geometry"/>
                </mxCell>
                <mxCell id="177" style="edgeStyle=none;curved=1;html=1;exitX=0.5;exitY=0;exitDx=0;exitDy=0;entryX=0;entryY=0.5;entryDx=0;entryDy=0;fontSize=16;startArrow=none;startFill=0;endArrow=none;endFill=0;strokeWidth=3;gradientColor=#7ea6e0;fillColor=#dae8fc;strokeColor=#6c8ebf;" edge="1" parent="1" source="154" target="176">
                    <mxGeometry relative="1" as="geometry"/>
                </mxCell>
                <mxCell id="154" value="Transaction" style="whiteSpace=wrap;html=1;strokeColor=#6c8ebf;gradientColor=#7ea6e0;fillColor=#dae8fc;fontColor=#0A1200;fontSize=16;fontStyle=1" vertex="1" parent="1">
                    <mxGeometry x="-500" y="180" width="120" height="60" as="geometry"/>
                </mxCell>
                <mxCell id="157" style="edgeStyle=none;curved=1;html=1;exitX=0;exitY=0.5;exitDx=0;exitDy=0;entryX=1;entryY=0.5;entryDx=0;entryDy=0;fontSize=16;startArrow=classic;startFill=1;endArrow=none;endFill=0;strokeWidth=3;gradientColor=#7ea6e0;fillColor=#dae8fc;strokeColor=#6c8ebf;" edge="1" parent="1" source="155" target="154">
                    <mxGeometry relative="1" as="geometry"/>
                </mxCell>
                <mxCell id="155" value="has a" style="rhombus;whiteSpace=wrap;html=1;strokeColor=#6c8ebf;gradientColor=#7ea6e0;fillColor=#dae8fc;fontColor=#0A1200;fontSize=16;fontStyle=1" vertex="1" parent="1">
                    <mxGeometry x="-303.75" y="180" width="80" height="60" as="geometry"/>
                </mxCell>
                <mxCell id="160" value="&lt;u style=&quot;font-size: 16px;&quot;&gt;&lt;span style=&quot;font-size: 16px;&quot;&gt;id&lt;/span&gt;&lt;/u&gt;" style="ellipse;whiteSpace=wrap;html=1;strokeColor=#6c8ebf;gradientColor=#7ea6e0;fillColor=#dae8fc;fontColor=#0A1200;fontSize=16;fontStyle=1" vertex="1" parent="1">
                    <mxGeometry x="-620" y="80" width="120" height="50" as="geometry"/>
                </mxCell>
                <mxCell id="162" value="user_id" style="ellipse;whiteSpace=wrap;html=1;strokeColor=#6c8ebf;gradientColor=#7ea6e0;fillColor=#dae8fc;fontColor=#0A1200;fontSize=16;fontStyle=1" vertex="1" parent="1">
                    <mxGeometry x="-610" y="5" width="120" height="50" as="geometry"/>
                </mxCell>
                <mxCell id="163" value="created" style="ellipse;whiteSpace=wrap;html=1;strokeColor=#6c8ebf;gradientColor=#7ea6e0;fillColor=#dae8fc;fontColor=#0A1200;fontSize=16;fontStyle=1" vertex="1" parent="1">
                    <mxGeometry x="-210" y="-445" width="120" height="50" as="geometry"/>
                </mxCell>
                <mxCell id="164" value="created" style="ellipse;whiteSpace=wrap;html=1;strokeColor=#6c8ebf;gradientColor=#7ea6e0;fillColor=#dae8fc;fontColor=#0A1200;fontSize=16;fontStyle=1" vertex="1" parent="1">
                    <mxGeometry x="-610" y="-70" width="120" height="50" as="geometry"/>
                </mxCell>
                <mxCell id="165" value="created" style="ellipse;whiteSpace=wrap;html=1;strokeColor=#6c8ebf;gradientColor=#7ea6e0;fillColor=#dae8fc;fontColor=#0A1200;fontSize=16;fontStyle=1" vertex="1" parent="1">
                    <mxGeometry x="-407.5" y="410" width="120" height="50" as="geometry"/>
                </mxCell>
                <mxCell id="172" value="&lt;span style=&quot;font-size: 16px&quot;&gt;&lt;span style=&quot;font-size: 16px&quot;&gt;price&lt;/span&gt;&lt;/span&gt;" style="ellipse;whiteSpace=wrap;html=1;strokeColor=#6c8ebf;gradientColor=#7ea6e0;fillColor=#dae8fc;fontColor=#0A1200;fontSize=16;fontStyle=1" vertex="1" parent="1">
                    <mxGeometry x="-423.75" y="80" width="120" height="50" as="geometry"/>
                </mxCell>
                <mxCell id="173" value="&lt;span style=&quot;font-size: 16px&quot;&gt;&lt;span style=&quot;font-size: 16px&quot;&gt;app_fee&lt;/span&gt;&lt;/span&gt;" style="ellipse;whiteSpace=wrap;html=1;strokeColor=#6c8ebf;gradientColor=#7ea6e0;fillColor=#dae8fc;fontColor=#0A1200;fontSize=16;fontStyle=1" vertex="1" parent="1">
                    <mxGeometry x="-423.75" y="10" width="120" height="50" as="geometry"/>
                </mxCell>
                <mxCell id="176" value="&lt;span style=&quot;font-size: 16px&quot;&gt;&lt;span style=&quot;font-size: 16px&quot;&gt;wurker_id&lt;/span&gt;&lt;/span&gt;" style="ellipse;whiteSpace=wrap;html=1;strokeColor=#6c8ebf;gradientColor=#7ea6e0;fillColor=#dae8fc;fontColor=#0A1200;fontSize=16;fontStyle=1" vertex="1" parent="1">
                    <mxGeometry x="-423.75" y="-55" width="120" height="50" as="geometry"/>
                </mxCell>
            </root>
        </mxGraphModel>
    </diagram>
</mxfile>